<svg width="750" height="591" viewBox="0 0 750 591" fill="none" xmlns="http://www.w3.org/2000/svg">
<g clip-path="url(#clip0_239_14)">
<path d="M378.917 590.773C558.581 590.773 704.228 458.524 704.228 295.386C704.228 132.249 558.581 0 378.917 0C199.252 0 53.6055 132.249 53.6055 295.386C53.6055 458.524 199.252 590.773 378.917 590.773Z" fill="#FCF3EC"/>
<path d="M132.408 305.891C205.536 305.891 264.817 248.571 264.817 177.863C264.817 107.155 205.536 49.8356 132.408 49.8356C59.2813 49.8356 0 107.155 0 177.863C0 248.571 59.2813 305.891 132.408 305.891Z" fill="#FCF3EC"/>
<path d="M617.591 280.408C690.718 280.408 750 223.088 750 152.38C750 81.6724 690.718 24.3525 617.591 24.3525C544.464 24.3525 485.183 81.6724 485.183 152.38C485.183 223.088 544.464 280.408 617.591 280.408Z" fill="#FCF3EC"/>
</g>
<defs>
<clipPath id="clip0_239_14">
<rect width="750" height="590.726" fill="white"/>
</clipPath>
</defs>
</svg>
