<svg width="750" height="297" viewBox="0 0 750 297" fill="none" xmlns="http://www.w3.org/2000/svg">
<g clip-path="url(#clip0_239_13)">
<path d="M206.365 58.1115C114.827 62.5655 27.1182 50.3625 -58.8125 15.4544C-26.9537 48.1827 5.00034 80.8276 37.1706 113.262C12.9242 128.791 -12.4296 142.513 -38.6898 154.126C44.7553 191.881 129.44 204.374 220.269 197.26C221.251 156.435 222.211 115.608 223.194 74.7823C223.43 65.2833 215.696 57.6457 206.365 58.1115Z" fill="#A38D57"/>
<path d="M74.8661 108.572C125.548 114.957 171.632 104.971 222.555 101.2C222.779 91.8585 223.003 82.5173 223.229 73.1534C223.423 65.3734 215.954 59.7954 208.713 62.3015C163.787 77.8147 121.91 100.857 74.844 108.571L74.8661 108.572Z" fill="#926A2D"/>
<path d="M777.749 243.609C566.946 105.379 321.664 269.332 94.046 239.785C86.7792 238.845 81.216 232.778 80.6934 225.351C78.1322 189.286 75.5914 153.244 73.0285 117.201C72.3497 107.451 80.4371 99.39 89.9693 100.367C338.941 126.061 606.919 -33.3949 836.609 117.834C842.897 121.985 845.317 130.191 842.333 137.237C828.329 170.361 814.325 203.485 800.321 236.609C796.524 245.564 785.774 248.89 777.725 243.63L777.749 243.609Z" fill="#CAA956"/>
</g>
<defs>
<clipPath id="clip0_239_13">
<rect width="908.644" height="228.129" fill="white" transform="translate(-57.6328) rotate(4.36618)"/>
</clipPath>
</defs>
</svg>
